<mxfile host="app.diagrams.net" modified="2021-06-14T04:24:52.884Z" agent="5.0 (Windows NT 10.0; Win64; x64) AppleWebKit/537.36 (KHTML, like Gecko) Chrome/88.0.4324.182 Safari/537.36" etag="ulYY0vxGS3cOIiDHNpL5" version="14.7.7" type="github">
  <diagram id="apNVCRPFXh2xA7y1VidH" name="Page-1">
    <mxGraphModel dx="2062" dy="762" grid="1" gridSize="10" guides="1" tooltips="1" connect="1" arrows="1" fold="1" page="1" pageScale="1" pageWidth="3300" pageHeight="4681" math="0" shadow="0">
      <root>
        <mxCell id="0" />
        <mxCell id="1" parent="0" />
        <mxCell id="87JchAxN4paugx9g1NCY-37" style="edgeStyle=orthogonalEdgeStyle;rounded=0;orthogonalLoop=1;jettySize=auto;html=1;entryX=0.5;entryY=0;entryDx=0;entryDy=0;" parent="1" source="87JchAxN4paugx9g1NCY-2" target="87JchAxN4paugx9g1NCY-8" edge="1">
          <mxGeometry relative="1" as="geometry">
            <Array as="points">
              <mxPoint x="685" y="290" />
              <mxPoint x="265" y="290" />
            </Array>
          </mxGeometry>
        </mxCell>
        <mxCell id="87JchAxN4paugx9g1NCY-2" value="FUNCTION print_sorttable(data, mode, sequence, space)" style="shape=process;whiteSpace=wrap;html=1;backgroundOutline=1;" parent="1" vertex="1">
          <mxGeometry x="540" y="170" width="290" height="60" as="geometry" />
        </mxCell>
        <mxCell id="87JchAxN4paugx9g1NCY-6" value="" style="edgeStyle=orthogonalEdgeStyle;rounded=0;orthogonalLoop=1;jettySize=auto;html=1;" parent="1" source="87JchAxN4paugx9g1NCY-8" target="87JchAxN4paugx9g1NCY-10" edge="1">
          <mxGeometry relative="1" as="geometry" />
        </mxCell>
        <mxCell id="87JchAxN4paugx9g1NCY-7" style="edgeStyle=orthogonalEdgeStyle;rounded=0;orthogonalLoop=1;jettySize=auto;html=1;" parent="1" source="87JchAxN4paugx9g1NCY-8" target="87JchAxN4paugx9g1NCY-14" edge="1">
          <mxGeometry relative="1" as="geometry" />
        </mxCell>
        <mxCell id="87JchAxN4paugx9g1NCY-8" value="mode == 1" style="rhombus;whiteSpace=wrap;html=1;" parent="1" vertex="1">
          <mxGeometry x="210" y="390" width="110" height="100" as="geometry" />
        </mxCell>
        <mxCell id="87JchAxN4paugx9g1NCY-9" value="" style="edgeStyle=orthogonalEdgeStyle;rounded=0;orthogonalLoop=1;jettySize=auto;html=1;" parent="1" source="87JchAxN4paugx9g1NCY-10" target="87JchAxN4paugx9g1NCY-11" edge="1">
          <mxGeometry relative="1" as="geometry" />
        </mxCell>
        <mxCell id="87JchAxN4paugx9g1NCY-10" value="columns = 11" style="rounded=1;whiteSpace=wrap;html=1;" parent="1" vertex="1">
          <mxGeometry x="150" y="530" width="230" height="40" as="geometry" />
        </mxCell>
        <mxCell id="87JchAxN4paugx9g1NCY-42" style="edgeStyle=orthogonalEdgeStyle;rounded=0;orthogonalLoop=1;jettySize=auto;html=1;exitX=0.5;exitY=1;exitDx=0;exitDy=0;" parent="1" source="87JchAxN4paugx9g1NCY-11" edge="1">
          <mxGeometry relative="1" as="geometry">
            <mxPoint x="540" y="820" as="targetPoint" />
            <Array as="points">
              <mxPoint x="265" y="820" />
            </Array>
          </mxGeometry>
        </mxCell>
        <mxCell id="87JchAxN4paugx9g1NCY-11" value="blanks = 180" style="rounded=1;whiteSpace=wrap;html=1;" parent="1" vertex="1">
          <mxGeometry x="150" y="620" width="230" height="40" as="geometry" />
        </mxCell>
        <mxCell id="87JchAxN4paugx9g1NCY-12" value="" style="edgeStyle=orthogonalEdgeStyle;rounded=0;orthogonalLoop=1;jettySize=auto;html=1;" parent="1" source="87JchAxN4paugx9g1NCY-14" target="87JchAxN4paugx9g1NCY-16" edge="1">
          <mxGeometry relative="1" as="geometry" />
        </mxCell>
        <mxCell id="87JchAxN4paugx9g1NCY-13" style="edgeStyle=orthogonalEdgeStyle;rounded=0;orthogonalLoop=1;jettySize=auto;html=1;entryX=0;entryY=0.5;entryDx=0;entryDy=0;" parent="1" source="87JchAxN4paugx9g1NCY-14" target="87JchAxN4paugx9g1NCY-20" edge="1">
          <mxGeometry relative="1" as="geometry" />
        </mxCell>
        <mxCell id="87JchAxN4paugx9g1NCY-14" value="mode == 2" style="rhombus;whiteSpace=wrap;html=1;" parent="1" vertex="1">
          <mxGeometry x="455" y="390" width="160" height="100" as="geometry" />
        </mxCell>
        <mxCell id="87JchAxN4paugx9g1NCY-15" value="" style="edgeStyle=orthogonalEdgeStyle;rounded=0;orthogonalLoop=1;jettySize=auto;html=1;" parent="1" source="87JchAxN4paugx9g1NCY-16" target="87JchAxN4paugx9g1NCY-17" edge="1">
          <mxGeometry relative="1" as="geometry" />
        </mxCell>
        <mxCell id="87JchAxN4paugx9g1NCY-16" value="columns = 13" style="rounded=1;whiteSpace=wrap;html=1;" parent="1" vertex="1">
          <mxGeometry x="420" y="530" width="230" height="40" as="geometry" />
        </mxCell>
        <mxCell id="87JchAxN4paugx9g1NCY-41" style="edgeStyle=orthogonalEdgeStyle;rounded=0;orthogonalLoop=1;jettySize=auto;html=1;entryX=0;entryY=0.5;entryDx=0;entryDy=0;" parent="1" source="87JchAxN4paugx9g1NCY-17" target="87JchAxN4paugx9g1NCY-40" edge="1">
          <mxGeometry relative="1" as="geometry" />
        </mxCell>
        <mxCell id="87JchAxN4paugx9g1NCY-17" value="blanks = 180" style="rounded=1;whiteSpace=wrap;html=1;" parent="1" vertex="1">
          <mxGeometry x="420" y="620" width="230" height="40" as="geometry" />
        </mxCell>
        <mxCell id="87JchAxN4paugx9g1NCY-18" value="" style="edgeStyle=orthogonalEdgeStyle;rounded=0;orthogonalLoop=1;jettySize=auto;html=1;" parent="1" source="87JchAxN4paugx9g1NCY-20" target="87JchAxN4paugx9g1NCY-22" edge="1">
          <mxGeometry relative="1" as="geometry" />
        </mxCell>
        <mxCell id="87JchAxN4paugx9g1NCY-19" style="edgeStyle=orthogonalEdgeStyle;rounded=0;orthogonalLoop=1;jettySize=auto;html=1;" parent="1" source="87JchAxN4paugx9g1NCY-20" target="87JchAxN4paugx9g1NCY-25" edge="1">
          <mxGeometry relative="1" as="geometry" />
        </mxCell>
        <mxCell id="87JchAxN4paugx9g1NCY-20" value="mode == 3" style="rhombus;whiteSpace=wrap;html=1;" parent="1" vertex="1">
          <mxGeometry x="760" y="390" width="110" height="100" as="geometry" />
        </mxCell>
        <mxCell id="87JchAxN4paugx9g1NCY-21" value="" style="edgeStyle=orthogonalEdgeStyle;rounded=0;orthogonalLoop=1;jettySize=auto;html=1;" parent="1" source="87JchAxN4paugx9g1NCY-22" target="87JchAxN4paugx9g1NCY-23" edge="1">
          <mxGeometry relative="1" as="geometry" />
        </mxCell>
        <mxCell id="87JchAxN4paugx9g1NCY-22" value="columns = 19" style="rounded=1;whiteSpace=wrap;html=1;" parent="1" vertex="1">
          <mxGeometry x="700" y="530" width="230" height="40" as="geometry" />
        </mxCell>
        <mxCell id="87JchAxN4paugx9g1NCY-43" style="edgeStyle=orthogonalEdgeStyle;rounded=0;orthogonalLoop=1;jettySize=auto;html=1;entryX=1;entryY=0.5;entryDx=0;entryDy=0;" parent="1" source="87JchAxN4paugx9g1NCY-23" target="87JchAxN4paugx9g1NCY-40" edge="1">
          <mxGeometry relative="1" as="geometry" />
        </mxCell>
        <mxCell id="87JchAxN4paugx9g1NCY-23" value="blanks = 302" style="rounded=1;whiteSpace=wrap;html=1;" parent="1" vertex="1">
          <mxGeometry x="700" y="620" width="230" height="40" as="geometry" />
        </mxCell>
        <mxCell id="87JchAxN4paugx9g1NCY-24" value="" style="edgeStyle=orthogonalEdgeStyle;rounded=0;orthogonalLoop=1;jettySize=auto;html=1;" parent="1" source="87JchAxN4paugx9g1NCY-25" target="87JchAxN4paugx9g1NCY-27" edge="1">
          <mxGeometry relative="1" as="geometry" />
        </mxCell>
        <mxCell id="87JchAxN4paugx9g1NCY-25" value="mode == 4" style="rhombus;whiteSpace=wrap;html=1;" parent="1" vertex="1">
          <mxGeometry x="1050" y="390" width="110" height="100" as="geometry" />
        </mxCell>
        <mxCell id="87JchAxN4paugx9g1NCY-26" value="" style="edgeStyle=orthogonalEdgeStyle;rounded=0;orthogonalLoop=1;jettySize=auto;html=1;" parent="1" source="87JchAxN4paugx9g1NCY-27" target="87JchAxN4paugx9g1NCY-28" edge="1">
          <mxGeometry relative="1" as="geometry" />
        </mxCell>
        <mxCell id="87JchAxN4paugx9g1NCY-27" value="columns = 13" style="rounded=1;whiteSpace=wrap;html=1;" parent="1" vertex="1">
          <mxGeometry x="990" y="530" width="230" height="40" as="geometry" />
        </mxCell>
        <mxCell id="87JchAxN4paugx9g1NCY-44" style="edgeStyle=orthogonalEdgeStyle;rounded=0;orthogonalLoop=1;jettySize=auto;html=1;" parent="1" source="87JchAxN4paugx9g1NCY-28" edge="1">
          <mxGeometry relative="1" as="geometry">
            <mxPoint x="810" y="820" as="targetPoint" />
            <Array as="points">
              <mxPoint x="1105" y="820" />
            </Array>
          </mxGeometry>
        </mxCell>
        <mxCell id="87JchAxN4paugx9g1NCY-28" value="blanks = 143" style="rounded=1;whiteSpace=wrap;html=1;" parent="1" vertex="1">
          <mxGeometry x="990" y="620" width="230" height="40" as="geometry" />
        </mxCell>
        <mxCell id="87JchAxN4paugx9g1NCY-29" value="True" style="text;html=1;align=center;verticalAlign=middle;resizable=0;points=[];autosize=1;strokeColor=none;" parent="1" vertex="1">
          <mxGeometry x="260" y="490" width="40" height="20" as="geometry" />
        </mxCell>
        <mxCell id="87JchAxN4paugx9g1NCY-30" value="True" style="text;html=1;align=center;verticalAlign=middle;resizable=0;points=[];autosize=1;strokeColor=none;" parent="1" vertex="1">
          <mxGeometry x="530" y="490" width="40" height="20" as="geometry" />
        </mxCell>
        <mxCell id="87JchAxN4paugx9g1NCY-31" value="True" style="text;html=1;align=center;verticalAlign=middle;resizable=0;points=[];autosize=1;strokeColor=none;" parent="1" vertex="1">
          <mxGeometry x="810" y="490" width="40" height="20" as="geometry" />
        </mxCell>
        <mxCell id="87JchAxN4paugx9g1NCY-32" value="True" style="text;html=1;align=center;verticalAlign=middle;resizable=0;points=[];autosize=1;strokeColor=none;" parent="1" vertex="1">
          <mxGeometry x="1100" y="490" width="40" height="20" as="geometry" />
        </mxCell>
        <mxCell id="87JchAxN4paugx9g1NCY-33" value="False" style="text;html=1;align=center;verticalAlign=middle;resizable=0;points=[];autosize=1;strokeColor=none;" parent="1" vertex="1">
          <mxGeometry x="320" y="420" width="40" height="20" as="geometry" />
        </mxCell>
        <mxCell id="87JchAxN4paugx9g1NCY-34" value="False" style="text;html=1;align=center;verticalAlign=middle;resizable=0;points=[];autosize=1;strokeColor=none;" parent="1" vertex="1">
          <mxGeometry x="615" y="420" width="40" height="20" as="geometry" />
        </mxCell>
        <mxCell id="87JchAxN4paugx9g1NCY-35" value="False" style="text;html=1;align=center;verticalAlign=middle;resizable=0;points=[];autosize=1;strokeColor=none;" parent="1" vertex="1">
          <mxGeometry x="870" y="420" width="40" height="20" as="geometry" />
        </mxCell>
        <mxCell id="87JchAxN4paugx9g1NCY-36" value="False" style="text;html=1;align=center;verticalAlign=middle;resizable=0;points=[];autosize=1;strokeColor=none;" parent="1" vertex="1">
          <mxGeometry x="1160" y="420" width="40" height="20" as="geometry" />
        </mxCell>
        <mxCell id="87JchAxN4paugx9g1NCY-58" style="edgeStyle=orthogonalEdgeStyle;rounded=0;orthogonalLoop=1;jettySize=auto;html=1;entryX=0.5;entryY=0;entryDx=0;entryDy=0;" parent="1" source="87JchAxN4paugx9g1NCY-40" target="87JchAxN4paugx9g1NCY-53" edge="1">
          <mxGeometry relative="1" as="geometry" />
        </mxCell>
        <mxCell id="87JchAxN4paugx9g1NCY-40" value="sequence.insert(0, 0)" style="rounded=1;whiteSpace=wrap;html=1;" parent="1" vertex="1">
          <mxGeometry x="560" y="800" width="230" height="40" as="geometry" />
        </mxCell>
        <mxCell id="87JchAxN4paugx9g1NCY-45" value="" style="group" parent="1" vertex="1" connectable="0">
          <mxGeometry x="571.48" y="1040" width="230" height="90" as="geometry" />
        </mxCell>
        <mxCell id="87JchAxN4paugx9g1NCY-46" value="" style="shape=hexagon;perimeter=hexagonPerimeter2;whiteSpace=wrap;html=1;fixedSize=1;" parent="87JchAxN4paugx9g1NCY-45" vertex="1">
          <mxGeometry width="230.00000000000003" height="90" as="geometry" />
        </mxCell>
        <mxCell id="87JchAxN4paugx9g1NCY-47" value="k" style="text;html=1;strokeColor=none;fillColor=none;align=center;verticalAlign=middle;whiteSpace=wrap;rounded=0;" parent="87JchAxN4paugx9g1NCY-45" vertex="1">
          <mxGeometry x="87.61904761904762" width="43.80952380952381" height="20" as="geometry" />
        </mxCell>
        <mxCell id="87JchAxN4paugx9g1NCY-48" value="0" style="text;html=1;strokeColor=none;fillColor=none;align=center;verticalAlign=middle;whiteSpace=wrap;rounded=0;" parent="87JchAxN4paugx9g1NCY-45" vertex="1">
          <mxGeometry x="10.952380952380953" y="35" width="43.80952380952381" height="20" as="geometry" />
        </mxCell>
        <mxCell id="87JchAxN4paugx9g1NCY-49" value="1" style="text;html=1;strokeColor=none;fillColor=none;align=center;verticalAlign=middle;whiteSpace=wrap;rounded=0;" parent="87JchAxN4paugx9g1NCY-45" vertex="1">
          <mxGeometry x="87.61904761904762" y="70" width="43.80952380952381" height="20" as="geometry" />
        </mxCell>
        <mxCell id="87JchAxN4paugx9g1NCY-50" value="&amp;lt;columns" style="text;html=1;strokeColor=none;fillColor=none;align=center;verticalAlign=middle;whiteSpace=wrap;rounded=0;" parent="87JchAxN4paugx9g1NCY-45" vertex="1">
          <mxGeometry x="164.2857142857143" y="35" width="43.80952380952381" height="20" as="geometry" />
        </mxCell>
        <mxCell id="87JchAxN4paugx9g1NCY-51" value="" style="group" parent="1" vertex="1" connectable="0">
          <mxGeometry x="566" y="900" width="230" height="90" as="geometry" />
        </mxCell>
        <mxCell id="87JchAxN4paugx9g1NCY-52" value="" style="shape=hexagon;perimeter=hexagonPerimeter2;whiteSpace=wrap;html=1;fixedSize=1;" parent="87JchAxN4paugx9g1NCY-51" vertex="1">
          <mxGeometry width="230.00000000000003" height="90" as="geometry" />
        </mxCell>
        <mxCell id="87JchAxN4paugx9g1NCY-53" value="i" style="text;html=1;strokeColor=none;fillColor=none;align=center;verticalAlign=middle;whiteSpace=wrap;rounded=0;" parent="87JchAxN4paugx9g1NCY-51" vertex="1">
          <mxGeometry x="87.61904761904762" width="43.80952380952381" height="20" as="geometry" />
        </mxCell>
        <mxCell id="87JchAxN4paugx9g1NCY-54" value="0" style="text;html=1;strokeColor=none;fillColor=none;align=center;verticalAlign=middle;whiteSpace=wrap;rounded=0;" parent="87JchAxN4paugx9g1NCY-51" vertex="1">
          <mxGeometry x="10.952380952380953" y="35" width="43.80952380952381" height="20" as="geometry" />
        </mxCell>
        <mxCell id="87JchAxN4paugx9g1NCY-55" value="1" style="text;html=1;strokeColor=none;fillColor=none;align=center;verticalAlign=middle;whiteSpace=wrap;rounded=0;" parent="87JchAxN4paugx9g1NCY-51" vertex="1">
          <mxGeometry x="87.61904761904762" y="70" width="43.80952380952381" height="20" as="geometry" />
        </mxCell>
        <mxCell id="87JchAxN4paugx9g1NCY-56" value="sequence" style="text;html=1;strokeColor=none;fillColor=none;align=center;verticalAlign=middle;whiteSpace=wrap;rounded=0;" parent="87JchAxN4paugx9g1NCY-51" vertex="1">
          <mxGeometry x="164.2857142857143" y="35" width="43.80952380952381" height="20" as="geometry" />
        </mxCell>
        <mxCell id="87JchAxN4paugx9g1NCY-57" style="edgeStyle=orthogonalEdgeStyle;rounded=0;orthogonalLoop=1;jettySize=auto;html=1;entryX=0.5;entryY=0;entryDx=0;entryDy=0;" parent="1" source="87JchAxN4paugx9g1NCY-52" target="87JchAxN4paugx9g1NCY-47" edge="1">
          <mxGeometry relative="1" as="geometry" />
        </mxCell>
        <mxCell id="87JchAxN4paugx9g1NCY-62" style="edgeStyle=orthogonalEdgeStyle;rounded=0;orthogonalLoop=1;jettySize=auto;html=1;entryX=0;entryY=0.5;entryDx=0;entryDy=0;" parent="1" source="87JchAxN4paugx9g1NCY-59" target="87JchAxN4paugx9g1NCY-60" edge="1">
          <mxGeometry relative="1" as="geometry" />
        </mxCell>
        <mxCell id="87JchAxN4paugx9g1NCY-65" value="" style="edgeStyle=orthogonalEdgeStyle;rounded=0;orthogonalLoop=1;jettySize=auto;html=1;" parent="1" source="87JchAxN4paugx9g1NCY-59" target="87JchAxN4paugx9g1NCY-64" edge="1">
          <mxGeometry relative="1" as="geometry" />
        </mxCell>
        <mxCell id="87JchAxN4paugx9g1NCY-59" value="mode == 4 AND (k == 5 OR k == 6 OR k ==7 OR k == 8 )" style="rhombus;whiteSpace=wrap;html=1;" parent="1" vertex="1">
          <mxGeometry x="280" y="1250" width="355" height="100" as="geometry" />
        </mxCell>
        <mxCell id="87JchAxN4paugx9g1NCY-67" value="" style="edgeStyle=orthogonalEdgeStyle;rounded=0;orthogonalLoop=1;jettySize=auto;html=1;" parent="1" source="87JchAxN4paugx9g1NCY-60" target="87JchAxN4paugx9g1NCY-66" edge="1">
          <mxGeometry relative="1" as="geometry" />
        </mxCell>
        <mxCell id="87JchAxN4paugx9g1NCY-69" style="edgeStyle=orthogonalEdgeStyle;rounded=0;orthogonalLoop=1;jettySize=auto;html=1;entryX=1;entryY=0.5;entryDx=0;entryDy=0;" parent="1" source="87JchAxN4paugx9g1NCY-60" target="87JchAxN4paugx9g1NCY-68" edge="1">
          <mxGeometry relative="1" as="geometry">
            <Array as="points">
              <mxPoint x="970" y="1300" />
              <mxPoint x="970" y="1540" />
            </Array>
          </mxGeometry>
        </mxCell>
        <mxCell id="87JchAxN4paugx9g1NCY-60" value="mode == 1 AND k == 3" style="rhombus;whiteSpace=wrap;html=1;" parent="1" vertex="1">
          <mxGeometry x="750" y="1250" width="160" height="100" as="geometry" />
        </mxCell>
        <mxCell id="87JchAxN4paugx9g1NCY-61" style="edgeStyle=orthogonalEdgeStyle;rounded=0;orthogonalLoop=1;jettySize=auto;html=1;entryX=0.5;entryY=0;entryDx=0;entryDy=0;" parent="1" source="87JchAxN4paugx9g1NCY-49" target="87JchAxN4paugx9g1NCY-59" edge="1">
          <mxGeometry relative="1" as="geometry">
            <Array as="points">
              <mxPoint x="681" y="1160" />
              <mxPoint x="458" y="1160" />
            </Array>
          </mxGeometry>
        </mxCell>
        <mxCell id="87JchAxN4paugx9g1NCY-73" style="edgeStyle=orthogonalEdgeStyle;rounded=0;orthogonalLoop=1;jettySize=auto;html=1;" parent="1" source="87JchAxN4paugx9g1NCY-64" edge="1">
          <mxGeometry relative="1" as="geometry">
            <mxPoint x="249.99999999999977" y="1500" as="targetPoint" />
            <Array as="points">
              <mxPoint x="458" y="1500" />
            </Array>
          </mxGeometry>
        </mxCell>
        <mxCell id="87JchAxN4paugx9g1NCY-64" value="CONTINUE" style="rounded=1;whiteSpace=wrap;html=1;" parent="1" vertex="1">
          <mxGeometry x="385" y="1400" width="145" height="40" as="geometry" />
        </mxCell>
        <mxCell id="87JchAxN4paugx9g1NCY-74" style="edgeStyle=orthogonalEdgeStyle;rounded=0;orthogonalLoop=1;jettySize=auto;html=1;" parent="1" edge="1">
          <mxGeometry relative="1" as="geometry">
            <mxPoint x="459" y="1499" as="targetPoint" />
            <mxPoint x="829" y="1439" as="sourcePoint" />
            <Array as="points">
              <mxPoint x="829" y="1499" />
            </Array>
          </mxGeometry>
        </mxCell>
        <mxCell id="87JchAxN4paugx9g1NCY-66" value="CONTINUE" style="rounded=1;whiteSpace=wrap;html=1;" parent="1" vertex="1">
          <mxGeometry x="757.5" y="1400" width="145" height="40" as="geometry" />
        </mxCell>
        <mxCell id="87JchAxN4paugx9g1NCY-71" style="edgeStyle=orthogonalEdgeStyle;rounded=0;orthogonalLoop=1;jettySize=auto;html=1;entryX=1;entryY=0.5;entryDx=0;entryDy=0;" parent="1" source="87JchAxN4paugx9g1NCY-68" target="87JchAxN4paugx9g1NCY-70" edge="1">
          <mxGeometry relative="1" as="geometry" />
        </mxCell>
        <mxCell id="87JchAxN4paugx9g1NCY-68" value="PRINT(data[i][k] + &quot; &quot; * (int(space[k]) - int(LEN(data[i][k]))) + &quot; | &quot;, end = &quot;&quot;)" style="rounded=1;whiteSpace=wrap;html=1;" parent="1" vertex="1">
          <mxGeometry x="580" y="1520" width="230" height="40" as="geometry" />
        </mxCell>
        <mxCell id="87JchAxN4paugx9g1NCY-72" style="edgeStyle=orthogonalEdgeStyle;rounded=0;orthogonalLoop=1;jettySize=auto;html=1;entryX=0;entryY=0.5;entryDx=0;entryDy=0;" parent="1" source="87JchAxN4paugx9g1NCY-70" target="87JchAxN4paugx9g1NCY-46" edge="1">
          <mxGeometry relative="1" as="geometry">
            <Array as="points">
              <mxPoint x="250" y="1540" />
              <mxPoint x="250" y="1085" />
            </Array>
          </mxGeometry>
        </mxCell>
        <mxCell id="87JchAxN4paugx9g1NCY-70" value="k" style="ellipse;whiteSpace=wrap;html=1;aspect=fixed;" parent="1" vertex="1">
          <mxGeometry x="450" y="1520" width="40" height="40" as="geometry" />
        </mxCell>
        <mxCell id="87JchAxN4paugx9g1NCY-82" style="edgeStyle=orthogonalEdgeStyle;rounded=0;orthogonalLoop=1;jettySize=auto;html=1;entryX=0.5;entryY=0;entryDx=0;entryDy=0;" parent="1" source="87JchAxN4paugx9g1NCY-75" target="87JchAxN4paugx9g1NCY-76" edge="1">
          <mxGeometry relative="1" as="geometry" />
        </mxCell>
        <mxCell id="87JchAxN4paugx9g1NCY-86" style="edgeStyle=orthogonalEdgeStyle;rounded=0;orthogonalLoop=1;jettySize=auto;html=1;" parent="1" source="87JchAxN4paugx9g1NCY-75" edge="1">
          <mxGeometry relative="1" as="geometry">
            <mxPoint x="681" y="1920" as="targetPoint" />
            <Array as="points">
              <mxPoint x="830" y="1675" />
              <mxPoint x="830" y="1920" />
            </Array>
          </mxGeometry>
        </mxCell>
        <mxCell id="87JchAxN4paugx9g1NCY-75" value="i == 0" style="rhombus;whiteSpace=wrap;html=1;" parent="1" vertex="1">
          <mxGeometry x="621.5" y="1630" width="119" height="90" as="geometry" />
        </mxCell>
        <mxCell id="87JchAxN4paugx9g1NCY-83" value="" style="edgeStyle=orthogonalEdgeStyle;rounded=0;orthogonalLoop=1;jettySize=auto;html=1;" parent="1" source="87JchAxN4paugx9g1NCY-76" target="87JchAxN4paugx9g1NCY-77" edge="1">
          <mxGeometry relative="1" as="geometry" />
        </mxCell>
        <mxCell id="87JchAxN4paugx9g1NCY-76" value="PRINT(&quot;&quot;)" style="rounded=1;whiteSpace=wrap;html=1;" parent="1" vertex="1">
          <mxGeometry x="566" y="1750" width="230" height="40" as="geometry" />
        </mxCell>
        <mxCell id="87JchAxN4paugx9g1NCY-84" value="" style="edgeStyle=orthogonalEdgeStyle;rounded=0;orthogonalLoop=1;jettySize=auto;html=1;" parent="1" source="87JchAxN4paugx9g1NCY-77" target="87JchAxN4paugx9g1NCY-78" edge="1">
          <mxGeometry relative="1" as="geometry" />
        </mxCell>
        <mxCell id="87JchAxN4paugx9g1NCY-77" value="PRINT(&quot;-&quot; * blanks, end = &quot;&quot;)" style="rounded=1;whiteSpace=wrap;html=1;" parent="1" vertex="1">
          <mxGeometry x="566" y="1830" width="230" height="40" as="geometry" />
        </mxCell>
        <mxCell id="87JchAxN4paugx9g1NCY-93" style="edgeStyle=orthogonalEdgeStyle;rounded=0;orthogonalLoop=1;jettySize=auto;html=1;entryX=1;entryY=0.5;entryDx=0;entryDy=0;" parent="1" source="87JchAxN4paugx9g1NCY-78" target="87JchAxN4paugx9g1NCY-92" edge="1">
          <mxGeometry relative="1" as="geometry" />
        </mxCell>
        <mxCell id="87JchAxN4paugx9g1NCY-78" value="PRINT(&quot;&quot;)" style="rounded=1;whiteSpace=wrap;html=1;" parent="1" vertex="1">
          <mxGeometry x="566" y="1940" width="230" height="40" as="geometry" />
        </mxCell>
        <mxCell id="87JchAxN4paugx9g1NCY-87" value="True" style="text;html=1;align=center;verticalAlign=middle;resizable=0;points=[];autosize=1;strokeColor=none;" parent="1" vertex="1">
          <mxGeometry x="680" y="1720" width="40" height="20" as="geometry" />
        </mxCell>
        <mxCell id="87JchAxN4paugx9g1NCY-88" value="False" style="text;html=1;align=center;verticalAlign=middle;resizable=0;points=[];autosize=1;strokeColor=none;" parent="1" vertex="1">
          <mxGeometry x="741" y="1650" width="40" height="20" as="geometry" />
        </mxCell>
        <mxCell id="87JchAxN4paugx9g1NCY-90" style="edgeStyle=orthogonalEdgeStyle;rounded=0;orthogonalLoop=1;jettySize=auto;html=1;" parent="1" source="87JchAxN4paugx9g1NCY-46" target="87JchAxN4paugx9g1NCY-75" edge="1">
          <mxGeometry relative="1" as="geometry">
            <Array as="points">
              <mxPoint x="1070" y="1085" />
              <mxPoint x="1070" y="1600" />
              <mxPoint x="681" y="1600" />
            </Array>
          </mxGeometry>
        </mxCell>
        <mxCell id="87JchAxN4paugx9g1NCY-94" style="edgeStyle=orthogonalEdgeStyle;rounded=0;orthogonalLoop=1;jettySize=auto;html=1;entryX=0;entryY=0.5;entryDx=0;entryDy=0;" parent="1" source="87JchAxN4paugx9g1NCY-92" target="87JchAxN4paugx9g1NCY-52" edge="1">
          <mxGeometry relative="1" as="geometry">
            <Array as="points">
              <mxPoint x="210" y="1960" />
              <mxPoint x="210" y="945" />
            </Array>
          </mxGeometry>
        </mxCell>
        <mxCell id="87JchAxN4paugx9g1NCY-92" value="i" style="ellipse;whiteSpace=wrap;html=1;aspect=fixed;" parent="1" vertex="1">
          <mxGeometry x="410" y="1940" width="40" height="40" as="geometry" />
        </mxCell>
        <mxCell id="xhxNDjIV3igr97HbGn4S-1" value="True" style="text;html=1;align=center;verticalAlign=middle;resizable=0;points=[];autosize=1;strokeColor=none;" vertex="1" parent="1">
          <mxGeometry x="455" y="1350" width="40" height="20" as="geometry" />
        </mxCell>
        <mxCell id="xhxNDjIV3igr97HbGn4S-2" value="True" style="text;html=1;align=center;verticalAlign=middle;resizable=0;points=[];autosize=1;strokeColor=none;" vertex="1" parent="1">
          <mxGeometry x="830" y="1350" width="40" height="20" as="geometry" />
        </mxCell>
        <mxCell id="xhxNDjIV3igr97HbGn4S-3" value="False" style="text;html=1;align=center;verticalAlign=middle;resizable=0;points=[];autosize=1;strokeColor=none;" vertex="1" parent="1">
          <mxGeometry x="635" y="1280" width="40" height="20" as="geometry" />
        </mxCell>
        <mxCell id="xhxNDjIV3igr97HbGn4S-4" value="False" style="text;html=1;align=center;verticalAlign=middle;resizable=0;points=[];autosize=1;strokeColor=none;" vertex="1" parent="1">
          <mxGeometry x="910" y="1280" width="40" height="20" as="geometry" />
        </mxCell>
      </root>
    </mxGraphModel>
  </diagram>
</mxfile>
